<?xml version="1.0" encoding="UTF-8"?>
<svg width="22px" height="19px" viewBox="0 0 22 19" version="1.1" xmlns="http://www.w3.org/2000/svg" xmlns:xlink="http://www.w3.org/1999/xlink">
    <!-- Generator: sketchtool 58 (101010) - https://sketch.com -->
    <title>5533173C-6A0A-40A4-80EE-3960BEAFDF87</title>
    <desc>Created with sketchtool.</desc>
    <g id="Intro" stroke="none" stroke-width="1" fill="none" fill-rule="evenodd">
        <g id="Front" transform="translate(-937.000000, -65.000000)" fill="#000000" fill-rule="nonzero" stroke="#000000" stroke-width="0.4">
            <g id="Top-nav" transform="translate(64.000000, 64.000000)">
                <g id="Icon-Basket" transform="translate(873.000000, 2.000000)">
                    <path d="M20.2183061,6.27037815 L17.5792017,6.27037815 L14.0165546,0.332563025 C13.8398319,0.037605042 13.4564706,-0.058697479 13.1602941,0.118655462 C12.8647059,0.296008403 12.7690336,0.679327731 12.9463866,0.974915966 L16.1236555,6.27037815 L5.84668067,6.27037815 L9.02394958,0.97487395 C9.20130252,0.679285714 9.10563025,0.295966387 8.81004202,0.118613445 C8.51323529,-0.0587394958 8.13113445,0.0375630252 7.95378151,0.332521008 L4.39113445,6.27033613 L1.66582961,6.27033613 L1.66582961,7.51848739 L2.3544958,7.51848739 L3.93995798,15.9757563 C4.10571429,16.8613025 4.87970588,17.5036555 5.7805042,17.5036555 L16.1898319,17.5036555 C17.0905882,17.5036555 17.8645798,16.8613025 18.0297479,15.9763866 L19.6157563,7.51848739 L20.2183061,7.51848739 C20.2183061,7.51848739 20.2183061,7.10245098 20.2183061,6.27037815 Z M1.525,7.52 C1.87017797,7.52 2.15,7.24017797 2.15,6.895 C2.15,6.54982203 1.87017797,6.27 1.525,6.27 C1.17982203,6.27 0.9,6.54982203 0.9,6.895 C0.9,7.24017797 1.17982203,7.52 1.525,7.52 Z M20.375,7.52 C20.720178,7.52 21,7.24017797 21,6.895 C21,6.54982203 20.720178,6.27 20.375,6.27 C20.029822,6.27 19.75,6.54982203 19.75,6.895 C19.75,7.24017797 20.029822,7.52 20.375,7.52 Z M16.8028992,15.7466387 C16.7480672,16.0415966 16.4902521,16.2555462 16.1897899,16.2555462 L5.7805042,16.2555462 C5.48004202,16.2555462 5.22226891,16.0416387 5.16680672,15.7460504 L3.6239916,7.51848739 L18.3463445,7.51848739 C18.3463445,7.51848739 16.8028992,15.7466387 16.8028992,15.7466387 L16.8028992,15.7466387 Z" id="Shape"></path>
                </g>
            </g>
        </g>
    </g>
</svg>