<?xml version="1.0" encoding="UTF-8"?>
<svg width="31px" height="22px" viewBox="0 0 31 22" version="1.1" xmlns="http://www.w3.org/2000/svg" xmlns:xlink="http://www.w3.org/1999/xlink">
    <!-- Generator: sketchtool 58 (101010) - https://sketch.com -->
    <title>2DF9263B-145A-47B6-87CC-F3BBE7B6AD3A</title>
    <desc>Created with sketchtool.</desc>
    <g id="Intro" stroke="none" stroke-width="1" fill="none" fill-rule="evenodd">
        <g id="Sub---Product-1" transform="translate(-593.000000, -431.000000)" fill="#000000" fill-rule="nonzero" stroke="#000000" stroke-width="0.4">
            <g id="Product" transform="translate(544.000000, 112.000000)">
                <g id="Delivery" transform="translate(50.000000, 320.000000)">
                    <g id="Icon-Delivery" transform="translate(0.000000, 0.000000)">
                        <polygon id="Path" points="20.4761905 17.1428571 9.04761905 17.1428571 9.04761905 16.1904762 19.5238095 16.1904762 19.5238095 0.952380952 0.952380952 0.952380952 0.952380952 16.1904762 4.28571429 16.1904762 4.28571429 17.1428571 0 17.1428571 0 0 20.4761905 0"></polygon>
                        <path d="M27.7414286,10.952381 L19.5238095,10.952381 L19.5238095,3.80951431 L24.9566667,3.80951431 C25.6228074,3.80710346 26.2013368,4.26747275 26.3485714,4.91714286 L27.7414286,10.952381 Z M20.4761905,10 L26.5442857,10 L25.4204762,5.13095238 C25.3717227,4.91428125 25.1787521,4.76073686 24.9566667,4.76189814 L20.4761905,4.76189814 L20.4761905,10 Z" id="Shape"></path>
                        <path d="M28.0952381,17.1428571 L26.6666667,17.1428571 L26.6666667,16.1904762 L28.0952381,16.1904762 C28.3582308,16.1904762 28.5714286,15.9772785 28.5714286,15.7142857 L28.5714286,11.4285714 C28.5714286,11.1655787 28.3582308,10.952381 28.0952381,10.952381 L20.4761905,10.952381 L20.4761905,16.1904762 L21.9047619,16.1904762 L21.9047619,17.1428571 L19.5238095,17.1428571 L19.5238095,10 L28.0952381,10 C28.8842163,10 29.5238095,10.6395932 29.5238095,11.4285714 L29.5238095,15.7142857 C29.5238095,16.5032639 28.8842163,17.1428571 28.0952381,17.1428571 Z" id="Path"></path>
                        <path d="M24.2857143,20 C22.4447651,20 20.952381,18.5076158 20.952381,16.6666667 C20.952381,14.8257175 22.4447651,13.3333333 24.2857143,13.3333333 C26.1266635,13.3333333 27.6190476,14.8257175 27.6190476,16.6666667 C27.6169483,18.5067456 26.1257932,19.9979006 24.2857143,20 L24.2857143,20 Z M24.2857143,14.2857143 C22.9707506,14.2857143 21.9047619,15.351703 21.9047619,16.6666667 C21.9047619,17.9816304 22.9707506,19.047619 24.2857143,19.047619 C25.600678,19.047619 26.6666667,17.9816304 26.6666667,16.6666667 C26.6650923,15.3523556 25.6000253,14.2872886 24.2857143,14.2857143 L24.2857143,14.2857143 Z" id="Shape"></path>
                        <path d="M6.66666667,20 C4.8257175,20 3.33333333,18.5076158 3.33333333,16.6666667 C3.33333333,14.8257175 4.8257175,13.3333333 6.66666667,13.3333333 C8.50761583,13.3333333 10,14.8257175 10,16.6666667 C9.99790065,18.5067456 8.50674555,19.9979006 6.66666667,20 L6.66666667,20 Z M6.66666667,14.2857143 C5.35170298,14.2857143 4.28571429,15.351703 4.28571429,16.6666667 C4.28571429,17.9816304 5.35170298,19.047619 6.66666667,19.047619 C7.98163036,19.047619 9.04761905,17.9816304 9.04761905,16.6666667 C9.04604471,15.3523556 7.98097769,14.2872886 6.66666667,14.2857143 L6.66666667,14.2857143 Z" id="Shape"></path>
                    </g>
                </g>
            </g>
        </g>
    </g>
</svg>