<?xml version="1.0" encoding="UTF-8"?>
<svg width="22px" height="13px" viewBox="0 0 22 13" version="1.1" xmlns="http://www.w3.org/2000/svg" xmlns:xlink="http://www.w3.org/1999/xlink">
    <!-- Generator: sketchtool 58 (101010) - https://sketch.com -->
    <title>DA9F4812-20A3-4480-9961-739BDDCA2976</title>
    <desc>Created with sketchtool.</desc>
    <defs>
        <path d="M5.96591049,13.8494926 C9.48648657,10.9171106 14.5989687,10.9171106 18.1195448,13.8494926 C18.5224774,14.1851059 19.1211872,14.1305329 19.4568005,13.7276003 C19.7924138,13.3246676 19.7378408,12.7259579 19.3349082,12.3903445 C15.1102169,8.8714862 8.97523836,8.8714862 4.75054706,12.3903445 C4.34761445,12.7259579 4.2930414,13.3246676 4.62865474,13.7276003 C4.96426809,14.1305329 5.56297788,14.1851059 5.96591049,13.8494926 Z M2.57766953,10.4612066 C7.96140722,5.71160493 16.0385928,5.71160493 21.4223305,10.4612066 C21.8155697,10.8081273 22.4155878,10.7705786 22.7625084,10.3773394 C23.1094291,9.98410018 23.0718804,9.38408207 22.6786412,9.03716145 C16.5770718,3.65427952 7.42292819,3.65427952 1.3213588,9.03716145 C0.928119582,9.38408207 0.890570945,9.98410018 1.23749157,10.3773394 C1.5844122,10.7705786 2.18443031,10.8081273 2.57766953,10.4612066 Z M9.2503985,17.2741913 C10.8968573,16.104462 13.1031427,16.104462 14.7496015,17.2741913 C15.1770938,17.5779039 15.7698525,17.4775607 16.0735651,17.0500684 C16.3772777,16.6225761 16.2769344,16.0298174 15.8494421,15.7261048 C13.5443998,14.0884837 10.4556002,14.0884837 8.1505579,15.7261048 C7.7230656,16.0298174 7.62272232,16.6225761 7.92643492,17.0500684 C8.23014752,17.4775607 8.8229062,17.5779039 9.2503985,17.2741913 Z" id="path-1"></path>
    </defs>
    <g id="Intro" stroke="none" stroke-width="1" fill="none" fill-rule="evenodd">
        <g id="Sub---Product-1" transform="translate(-721.000000, -293.000000)">
            <g id="Product" transform="translate(544.000000, 112.000000)">
                <g id="Type" transform="translate(40.000000, 168.000000)">
                    <g id="Button-Selector">
                        <g id="Icon-Wireless" transform="translate(136.000000, 8.000000)">
                            <rect id="Rectangle" fill-rule="nonzero" x="0" y="0" width="24" height="24"></rect>
                            <mask id="mask-2" fill="white">
                                <use xlink:href="#path-1"></use>
                            </mask>
                            <use id="Shape" fill="#000000" fill-rule="nonzero" xlink:href="#path-1"></use>
                        </g>
                    </g>
                </g>
            </g>
        </g>
    </g>
</svg>