<?xml version="1.0" encoding="UTF-8"?>
<svg width="22px" height="22px" viewBox="0 0 22 22" version="1.1" xmlns="http://www.w3.org/2000/svg" xmlns:xlink="http://www.w3.org/1999/xlink">
    <!-- Generator: sketchtool 58 (101010) - https://sketch.com -->
    <title>CDE173C1-6841-4806-BDFB-D2195B4B6A9E</title>
    <desc>Created with sketchtool.</desc>
    <g id="Intro" stroke="none" stroke-width="1" fill="none" fill-rule="evenodd">
        <g id="Sub---Product-1" transform="translate(-597.000000, -467.000000)" fill="#000000" fill-rule="nonzero" stroke="#000000">
            <g id="Product" transform="translate(544.000000, 112.000000)">
                <g id="Delivery" transform="translate(50.000000, 320.000000)">
                    <g id="Icon-Boxes" transform="translate(4.000000, 36.000000)">
                        <path d="M10.4351032,20 L0.110619469,20 L0.110619469,9.67551622 L10.4351032,9.67551622 L10.4351032,20 Z M0.818584071,19.3510324 L9.78613569,19.3510324 L9.78613569,10.3834808 L0.818584071,10.3834808 L0.818584071,19.3510324 Z" id="Shape" stroke-width="0.6"></path>
                        <path d="M15.2728614,10.3244838 L4.94837758,10.3244838 L4.94837758,0 L15.2728614,0 L15.2728614,10.3244838 Z M5.65634218,9.67551622 L14.6238938,9.67551622 L14.6238938,0.707964602 L5.65634218,0.707964602 L5.65634218,9.67551622 Z" id="Shape" stroke-width="0.6"></path>
                        <path d="M20.1106195,20 L9.78613569,20 L9.78613569,9.67551622 L20.1106195,9.67551622 L20.1106195,20 Z M10.4941003,19.3510324 L19.4616519,19.3510324 L19.4616519,10.3834808 L10.4941003,10.3834808 L10.4941003,19.3510324 Z" id="Shape" stroke-width="0.6"></path>
                        <path d="M11.8510324,3.53982301 L10.1106195,3.10943893 L8.37020649,3.53982301 L8.37020649,0 L11.8510324,0 L11.8510324,3.53982301 Z M10.1106195,2.39954692 L11.1430678,2.65486726 L11.1430678,0.707964602 L9.07817109,0.707964602 L9.07817109,2.65486726 L10.1106195,2.39954692 Z" id="Shape" stroke-width="0.3"></path>
                        <path d="M7.01327434,13.2153392 L5.27286136,12.7849551 L3.53244838,13.2153392 L3.53244838,9.67551622 L7.01327434,9.67551622 L7.01327434,13.2153392 Z M5.27286136,12.0750631 L6.30530973,12.3303835 L6.30530973,10.3834808 L4.24041298,10.3834808 L4.24041298,12.3303835 L5.27286136,12.0750631 Z" id="Shape" stroke-width="0.3"></path>
                        <path d="M16.6887906,13.2153392 L14.9483776,12.7849551 L13.2079646,13.2153392 L13.2079646,9.67551622 L16.6887906,9.67551622 L16.6887906,13.2153392 Z M14.9483776,12.0750631 L15.980826,12.3303835 L15.980826,10.3834808 L13.9159292,10.3834808 L13.9159292,12.3303835 L14.9483776,12.0750631 Z" id="Shape" stroke-width="0.3"></path>
                    </g>
                </g>
            </g>
        </g>
    </g>
</svg>