<?xml version="1.0" encoding="UTF-8"?>
<svg width="22px" height="18px" viewBox="0 0 22 18" version="1.1" xmlns="http://www.w3.org/2000/svg" xmlns:xlink="http://www.w3.org/1999/xlink">
    <!-- Generator: sketchtool 58 (101010) - https://sketch.com -->
    <title>B85CE041-D950-439D-ADF6-F37BA76A320E</title>
    <desc>Created with sketchtool.</desc>
    <g id="Intro" stroke="none" stroke-width="1" fill="none" fill-rule="evenodd">
        <g id="Sub---Product-1" transform="translate(-793.000000, -289.000000)">
            <g id="Product" transform="translate(544.000000, 112.000000)">
                <g id="Type" transform="translate(40.000000, 168.000000)">
                    <g id="Button-Selector" transform="translate(192.000000, 0.000000)">
                        <g id="Icon-Hifi" transform="translate(16.000000, 8.000000)">
                            <rect id="Rectangle" fill-rule="nonzero" x="0" y="0" width="24" height="24"></rect>
                            <path d="M6,17 C6.55228475,17 7,17.4477153 7,18 C7,18.5522847 6.55228475,19 6,19 L2,19 C1.44771525,19 1,18.5522847 1,18 C1,17.4477153 1.44771525,17 2,17 L6,17 Z M14,17 C14.5522847,17 15,17.4477153 15,18 C15,18.5522847 14.5522847,19 14,19 L10,19 C9.44771525,19 9,18.5522847 9,18 C9,17.4477153 9.44771525,17 10,17 L14,17 Z M22,17 C22.5522847,17 23,17.4477153 23,18 C23,18.5522847 22.5522847,19 22,19 L18,19 C17.4477153,19 17,18.5522847 17,18 C17,17.4477153 17.4477153,17 18,17 L22,17 Z M6,13 C6.55228475,13 7,13.4477153 7,14 C7,14.5522847 6.55228475,15 6,15 L2,15 C1.44771525,15 1,14.5522847 1,14 C1,13.4477153 1.44771525,13 2,13 L6,13 Z M14,13 C14.5522847,13 15,13.4477153 15,14 C15,14.5522847 14.5522847,15 14,15 L10,15 C9.44771525,15 9,14.5522847 9,14 C9,13.4477153 9.44771525,13 10,13 L14,13 Z M22,13 C22.5522847,13 23,13.4477153 23,14 C23,14.5522847 22.5522847,15 22,15 L18,15 C17.4477153,15 17,14.5522847 17,14 C17,13.4477153 17.4477153,13 18,13 L22,13 Z M14,9 C14.5522847,9 15,9.44771525 15,10 C15,10.5522847 14.5522847,11 14,11 L10,11 C9.44771525,11 9,10.5522847 9,10 C9,9.44771525 9.44771525,9 10,9 L14,9 Z M6,9 C6.55228475,9 7,9.44771525 7,10 C7,10.5522847 6.55228475,11 6,11 L2,11 C1.44771525,11 1,10.5522847 1,10 C1,9.44771525 1.44771525,9 2,9 L6,9 Z M22,9 C22.5522847,9 23,9.44771525 23,10 C23,10.5522847 22.5522847,11 22,11 L18,11 C17.4477153,11 17,10.5522847 17,10 C17,9.44771525 17.4477153,9 18,9 L22,9 Z M14,5 C14.5522847,5 15,5.44771525 15,6 C15,6.55228475 14.5522847,7 14,7 L10,7 C9.44771525,7 9,6.55228475 9,6 C9,5.44771525 9.44771525,5 10,5 L14,5 Z M22,5 C22.5522847,5 23,5.44771525 23,6 C23,6.55228475 22.5522847,7 22,7 L18,7 C17.4477153,7 17,6.55228475 17,6 C17,5.44771525 17.4477153,5 18,5 L22,5 Z M14,1 C14.5522847,1 15,1.44771525 15,2 C15,2.55228475 14.5522847,3 14,3 L10,3 C9.44771525,3 9,2.55228475 9,2 C9,1.44771525 9.44771525,1 10,1 L14,1 Z" id="Combined-Shape" fill="#000000"></path>
                        </g>
                    </g>
                </g>
            </g>
        </g>
    </g>
</svg>